<?xml version="1.0"?>
<!-- Created by MetaPost 1.999 on 2017.04.17:1436 -->
<svg version="1.1" xmlns="http://www.w3.org/2000/svg" xmlns:xlink="http://www.w3.org/1999/xlink" width="609.995514" height="361.610962" viewBox="0 0 609.995514 361.610962">
<!-- Original BoundingBox: -47.937012 -12.052216 562.058502 349.558746 -->
  <defs>
    <g transform="scale(0.009963,0.009963)" id="GLYPHpplri8r_2">
      <path style="fill-rule: evenodd;" d="M465.000000 -712.000000C437.000000 -712.000000,408.000000 -678.000000,408.000000 -645.000000C408.000000 -620.000000,423.000000 -604.000000,447.000000 -604.000000C478.000000 -604.000000,502.000000 -633.000000,502.000000 -671.000000C502.000000 -693.000000,484.000000 -712.000000,465.000000 -712.000000M192.000000 -437.000000L213.000000 -549.000000C228.000000 -627.000000,257.000000 -673.000000,292.000000 -673.000000C314.000000 -673.000000,332.000000 -658.000000,342.000000 -632.000000L354.000000 -635.000000C363.000000 -681.000000,367.000000 -701.000000,375.000000 -724.000000C354.000000 -731.000000,343.000000 -733.000000,332.000000 -733.000000C320.000000 -733.000000,305.000000 -730.000000,296.000000 -726.000000C279.000000 -718.000000,210.000000 -662.000000,179.000000 -630.000000C157.000000 -608.000000,145.000000 -578.000000,134.000000 -521.000000L119.000000 -442.000000C78.000000 -422.000000,58.000000 -414.000000,33.000000 -405.000000L28.000000 -383.000000L109.000000 -383.000000L100.000000 -327.000000C70.000000 -132.000000,33.000000 54.000000,11.000000 123.000000C-7.000000 182.000000,-37.000000 213.000000,-73.000000 213.000000C-96.000000 213.000000,-107.000000 206.000000,-125.000000 184.000000L-139.000000 188.000000C-143.000000 211.000000,-157.000000 259.000000,-162.000000 268.000000C-153.000000 273.000000,-138.000000 276.000000,-127.000000 276.000000C-86.000000 276.000000,-32.000000 245.000000,7.000000 198.000000C68.000000 126.000000,91.000000 55.000000,163.000000 -295.000000C166.000000 -307.000000,173.000000 -342.000000,182.000000 -383.000000L272.000000 -383.000000L324.000000 -406.000000C341.000000 -414.000000,345.000000 -415.000000,351.000000 -415.000000C362.000000 -415.000000,370.000000 -405.000000,370.000000 -393.000000C370.000000 -386.000000,368.000000 -374.000000,363.000000 -360.000000C362.000000 -357.000000,362.000000 -357.000000,362.000000 -355.000000L303.000000 -81.000000C299.000000 -64.000000,297.000000 -46.000000,297.000000 -33.000000C297.000000 -6.000000,309.000000 9.000000,331.000000 9.000000C357.000000 9.000000,407.000000 -21.000000,482.000000 -81.000000L473.000000 -101.000000L439.000000 -75.000000C422.000000 -62.000000,404.000000 -54.000000,392.000000 -54.000000C384.000000 -54.000000,379.000000 -62.000000,379.000000 -74.000000C379.000000 -82.000000,380.000000 -92.000000,384.000000 -108.000000L445.000000 -406.000000C449.000000 -424.000000,450.000000 -435.000000,450.000000 -448.000000C450.000000 -469.000000,444.000000 -482.000000,435.000000 -482.000000C427.000000 -482.000000,416.000000 -478.000000,393.000000 -467.000000C334.000000 -440.000000,306.000000 -431.000000,281.000000 -432.000000"></path>
    </g>
    <g transform="scale(0.009963,0.009963)" id="GLYPHpplri8r_49">
      <path style="fill-rule: evenodd;" d="M374.000000 -688.000000L359.000000 -699.000000L259.000000 -658.000000C221.000000 -642.000000,191.000000 -634.000000,119.000000 -616.000000L95.000000 -610.000000L84.000000 -551.000000L91.000000 -546.000000L175.000000 -587.000000C176.000000 -588.000000,210.000000 -602.000000,242.000000 -615.000000C258.000000 -621.000000,265.000000 -624.000000,278.000000 -629.000000L192.000000 -102.000000C183.000000 -50.000000,175.000000 -39.000000,144.000000 -34.000000L59.000000 -24.000000L54.000000 3.000000C123.000000 1.000000,171.000000 -0.000000,224.000000 -0.000000C277.000000 -0.000000,324.000000 1.000000,393.000000 3.000000L398.000000 -24.000000L327.000000 -28.000000C281.000000 -31.000000,268.000000 -41.000000,268.000000 -76.000000C268.000000 -87.000000,269.000000 -94.000000,276.000000 -136.000000L350.000000 -573.000000"></path>
    </g>
    <g transform="scale(0.009963,0.009963)" id="GLYPHpplri8r_65">
      <path style="fill-rule: evenodd;" d="M462.000000 -705.000000L89.000000 -112.000000C53.000000 -56.000000,35.000000 -40.000000,1.000000 -32.000000L-19.000000 -27.000000L-19.000000 3.000000C73.000000 -0.000000,73.000000 -0.000000,93.000000 -0.000000C112.000000 -0.000000,114.000000 -0.000000,200.000000 3.000000L200.000000 -25.000000L148.000000 -28.000000C132.000000 -29.000000,117.000000 -38.000000,117.000000 -47.000000C117.000000 -55.000000,124.000000 -69.000000,143.000000 -102.000000L245.000000 -277.000000L491.000000 -277.000000L516.000000 -89.000000L516.000000 -86.000000C516.000000 -85.000000,517.000000 -82.000000,518.000000 -77.000000C519.000000 -69.000000,520.000000 -59.000000,520.000000 -55.000000C520.000000 -39.000000,505.000000 -30.000000,477.000000 -28.000000L433.000000 -25.000000L433.000000 3.000000C535.000000 -0.000000,535.000000 -0.000000,555.000000 -0.000000C575.000000 -0.000000,575.000000 -0.000000,677.000000 3.000000L677.000000 -25.000000L651.000000 -28.000000C604.000000 -35.000000,603.000000 -35.000000,595.000000 -80.000000L508.000000 -705.000000M449.000000 -601.000000L486.000000 -313.000000L270.000000 -313.000000"></path>
    </g>
    <g transform="scale(0.009963,0.009963)" id="GLYPHpplri8r_69">
      <path style="fill-rule: evenodd;" d="M221.000000 -334.000000L338.000000 -334.000000C365.000000 -334.000000,396.000000 -333.000000,444.000000 -331.000000L470.000000 -330.000000L489.000000 -375.000000L485.000000 -382.000000C404.000000 -378.000000,344.000000 -376.000000,266.000000 -376.000000L229.000000 -376.000000L271.000000 -614.000000C274.000000 -630.000000,276.000000 -638.000000,280.000000 -646.000000L327.000000 -648.000000C359.000000 -649.000000,391.000000 -650.000000,413.000000 -650.000000C475.000000 -650.000000,516.000000 -641.000000,517.000000 -626.000000L525.000000 -537.000000L549.000000 -537.000000C552.000000 -601.000000,559.000000 -651.000000,570.000000 -689.000000C549.000000 -691.000000,519.000000 -692.000000,501.000000 -692.000000C498.000000 -692.000000,487.000000 -692.000000,463.000000 -691.000000L343.000000 -690.000000C334.000000 -689.000000,275.000000 -689.000000,265.000000 -689.000000C228.000000 -689.000000,201.000000 -689.000000,150.000000 -691.000000L105.000000 -692.000000L102.000000 -664.000000L156.000000 -662.000000C180.000000 -661.000000,191.000000 -653.000000,191.000000 -635.000000C191.000000 -621.000000,187.000000 -589.000000,182.000000 -559.000000L95.000000 -55.000000C91.000000 -37.000000,79.000000 -30.000000,35.000000 -23.000000L30.000000 3.000000L71.000000 2.000000C102.000000 1.000000,164.000000 -0.000000,184.000000 -0.000000L399.000000 3.000000L409.000000 3.000000C423.000000 3.000000,448.000000 2.000000,481.000000 1.000000L514.000000 -0.000000L518.000000 -36.000000C520.000000 -56.000000,525.000000 -86.000000,534.000000 -135.000000L539.000000 -161.000000L512.000000 -161.000000L496.000000 -101.000000C486.000000 -65.000000,477.000000 -53.000000,455.000000 -48.000000C435.000000 -44.000000,362.000000 -39.000000,308.000000 -39.000000C267.000000 -39.000000,245.000000 -40.000000,176.000000 -46.000000L176.000000 -50.000000C176.000000 -64.000000,177.000000 -72.000000,178.000000 -81.000000"></path>
    </g>
    <g transform="scale(0.009963,0.009963)" id="GLYPHpplri8r_70">
      <path style="fill-rule: evenodd;" d="M286.000000 -646.000000L392.000000 -650.000000C454.000000 -650.000000,494.000000 -641.000000,495.000000 -626.000000L503.000000 -537.000000L527.000000 -537.000000C530.000000 -600.000000,537.000000 -651.000000,548.000000 -689.000000C526.000000 -691.000000,498.000000 -692.000000,481.000000 -692.000000L440.000000 -691.000000L275.000000 -689.000000L246.000000 -689.000000C221.000000 -689.000000,181.000000 -690.000000,143.000000 -691.000000L94.000000 -692.000000L91.000000 -664.000000L147.000000 -662.000000C171.000000 -661.000000,182.000000 -652.000000,182.000000 -635.000000C182.000000 -621.000000,178.000000 -589.000000,173.000000 -559.000000L98.000000 -125.000000C81.000000 -33.000000,81.000000 -32.000000,40.000000 -28.000000L4.000000 -25.000000L0.000000 3.000000L34.000000 2.000000C74.000000 1.000000,106.000000 -0.000000,127.000000 -0.000000C145.000000 -0.000000,174.000000 1.000000,213.000000 2.000000L265.000000 3.000000L268.000000 -25.000000L204.000000 -28.000000C177.000000 -29.000000,168.000000 -37.000000,168.000000 -57.000000C168.000000 -63.000000,169.000000 -74.000000,170.000000 -78.000000L206.000000 -301.000000L323.000000 -301.000000C350.000000 -301.000000,381.000000 -300.000000,429.000000 -298.000000L455.000000 -297.000000L474.000000 -342.000000L470.000000 -349.000000C389.000000 -345.000000,329.000000 -343.000000,251.000000 -343.000000L214.000000 -343.000000L260.000000 -614.000000C263.000000 -630.000000,264.000000 -635.000000,269.000000 -646.000000"></path>
    </g>
    <g transform="scale(0.009963,0.009963)" id="GLYPHpplri8r_71">
      <path style="fill-rule: evenodd;" d="M528.000000 -60.000000C483.000000 -36.000000,444.000000 -27.000000,390.000000 -27.000000C224.000000 -27.000000,138.000000 -120.000000,138.000000 -297.000000C138.000000 -414.000000,173.000000 -515.000000,237.000000 -579.000000C286.000000 -629.000000,351.000000 -653.000000,434.000000 -653.000000C511.000000 -653.000000,565.000000 -639.000000,621.000000 -603.000000L621.000000 -519.000000L648.000000 -519.000000C653.000000 -576.000000,661.000000 -619.000000,675.000000 -665.000000C592.000000 -695.000000,535.000000 -706.000000,466.000000 -706.000000C374.000000 -706.000000,301.000000 -683.000000,229.000000 -632.000000C112.000000 -548.000000,50.000000 -424.000000,50.000000 -274.000000C50.000000 -87.000000,159.000000 18.000000,355.000000 18.000000C409.000000 18.000000,461.000000 9.000000,522.000000 -12.000000L552.000000 -22.000000C578.000000 -31.000000,595.000000 -35.000000,608.000000 -37.000000L612.000000 -44.000000C610.000000 -58.000000,609.000000 -66.000000,609.000000 -73.000000C609.000000 -76.000000,609.000000 -80.000000,610.000000 -84.000000L633.000000 -219.000000C635.000000 -228.000000,647.000000 -238.000000,660.000000 -240.000000L692.000000 -246.000000L694.000000 -274.000000C655.000000 -270.000000,620.000000 -269.000000,569.000000 -269.000000C518.000000 -269.000000,482.000000 -270.000000,440.000000 -274.000000L435.000000 -246.000000L469.000000 -244.000000C544.000000 -240.000000,553.000000 -236.000000,553.000000 -212.000000C553.000000 -197.000000,551.000000 -177.000000,546.000000 -153.000000"></path>
    </g>
    <g transform="scale(0.009963,0.009963)" id="GLYPHpplri8r_73">
      <path style="fill-rule: evenodd;" d="M103.000000 -664.000000L150.000000 -662.000000C174.000000 -661.000000,185.000000 -653.000000,185.000000 -636.000000C185.000000 -629.000000,179.000000 -576.000000,176.000000 -559.000000L104.000000 -125.000000C89.000000 -36.000000,86.000000 -31.000000,46.000000 -28.000000L10.000000 -25.000000L7.000000 3.000000L39.000000 3.000000L133.000000 -0.000000L227.000000 3.000000L259.000000 3.000000L262.000000 -25.000000L210.000000 -28.000000C184.000000 -30.000000,174.000000 -37.000000,174.000000 -57.000000C174.000000 -63.000000,175.000000 -74.000000,176.000000 -78.000000L265.000000 -613.000000C272.000000 -652.000000,277.000000 -657.000000,316.000000 -661.000000L351.000000 -664.000000L354.000000 -692.000000L345.000000 -692.000000L248.000000 -689.000000C231.000000 -689.000000,213.000000 -689.000000,170.000000 -690.000000L106.000000 -692.000000"></path>
    </g>
    <g transform="scale(0.009963,0.009963)" id="GLYPHpplri8r_76">
      <path style="fill-rule: evenodd;" d="M349.000000 -664.000000L352.000000 -692.000000L328.000000 -692.000000L238.000000 -689.000000C222.000000 -689.000000,204.000000 -689.000000,161.000000 -690.000000L97.000000 -692.000000L94.000000 -664.000000L141.000000 -662.000000C165.000000 -661.000000,176.000000 -653.000000,176.000000 -635.000000C176.000000 -621.000000,172.000000 -590.000000,167.000000 -559.000000L81.000000 -55.000000C77.000000 -37.000000,65.000000 -30.000000,21.000000 -23.000000L16.000000 3.000000L57.000000 2.000000C88.000000 1.000000,150.000000 -0.000000,170.000000 -0.000000L385.000000 3.000000L395.000000 3.000000C409.000000 3.000000,434.000000 2.000000,467.000000 1.000000L500.000000 -0.000000C499.000000 -25.000000,510.000000 -103.000000,523.000000 -165.000000L492.000000 -165.000000L475.000000 -103.000000C466.000000 -71.000000,457.000000 -54.000000,448.000000 -49.000000C435.000000 -44.000000,371.000000 -39.000000,304.000000 -39.000000C255.000000 -39.000000,228.000000 -40.000000,162.000000 -46.000000L162.000000 -50.000000C162.000000 -64.000000,163.000000 -72.000000,164.000000 -81.000000L256.000000 -613.000000C263.000000 -651.000000,270.000000 -658.000000,307.000000 -661.000000"></path>
    </g>
    <g transform="scale(0.009963,0.009963)" id="GLYPHpplri8r_80">
      <path style="fill-rule: evenodd;" d="M105.000000 -664.000000L160.000000 -662.000000C184.000000 -661.000000,195.000000 -653.000000,195.000000 -635.000000C195.000000 -621.000000,191.000000 -590.000000,186.000000 -559.000000L112.000000 -125.000000C95.000000 -34.000000,94.000000 -31.000000,54.000000 -28.000000L13.000000 -25.000000L9.000000 3.000000L51.000000 2.000000C92.000000 1.000000,123.000000 -0.000000,141.000000 -0.000000C158.000000 -0.000000,187.000000 1.000000,227.000000 2.000000L280.000000 3.000000L283.000000 -25.000000L218.000000 -28.000000C192.000000 -29.000000,182.000000 -37.000000,182.000000 -58.000000C182.000000 -67.000000,183.000000 -74.000000,186.000000 -93.000000L268.000000 -580.000000C268.000000 -581.000000,272.000000 -601.000000,277.000000 -620.000000C278.000000 -625.000000,281.000000 -635.000000,284.000000 -648.000000C320.000000 -654.000000,336.000000 -656.000000,355.000000 -656.000000C457.000000 -656.000000,506.000000 -612.000000,506.000000 -519.000000C506.000000 -411.000000,434.000000 -323.000000,346.000000 -323.000000C324.000000 -323.000000,304.000000 -328.000000,267.000000 -342.000000L269.000000 -311.000000C306.000000 -293.000000,326.000000 -288.000000,355.000000 -288.000000C484.000000 -288.000000,594.000000 -405.000000,594.000000 -541.000000C594.000000 -642.000000,531.000000 -695.000000,412.000000 -692.000000L274.000000 -689.000000L161.000000 -691.000000L108.000000 -692.000000"></path>
    </g>
    <g transform="scale(0.009963,0.009963)" id="GLYPHpplri8r_82">
      <path style="fill-rule: evenodd;" d="M105.000000 -664.000000L161.000000 -662.000000C185.000000 -661.000000,196.000000 -653.000000,196.000000 -635.000000C196.000000 -621.000000,192.000000 -589.000000,187.000000 -559.000000L112.000000 -125.000000C96.000000 -34.000000,94.000000 -32.000000,54.000000 -28.000000L13.000000 -25.000000L9.000000 3.000000L51.000000 2.000000C98.000000 -0.000000,117.000000 -0.000000,141.000000 -0.000000L238.000000 3.000000L264.000000 3.000000L267.000000 -25.000000L218.000000 -28.000000C191.000000 -30.000000,182.000000 -38.000000,182.000000 -58.000000C182.000000 -67.000000,183.000000 -76.000000,186.000000 -93.000000L271.000000 -580.000000C271.000000 -582.000000,276.000000 -602.000000,280.000000 -620.000000C282.000000 -628.000000,284.000000 -635.000000,287.000000 -648.000000C316.000000 -654.000000,336.000000 -656.000000,363.000000 -656.000000C450.000000 -656.000000,496.000000 -617.000000,496.000000 -543.000000C496.000000 -448.000000,418.000000 -378.000000,314.000000 -378.000000L270.000000 -378.000000L267.000000 -367.000000C401.000000 -172.000000,432.000000 -124.000000,507.000000 3.000000L573.000000 -0.000000L581.000000 -0.000000L592.000000 -0.000000C593.000000 -0.000000,607.000000 1.000000,626.000000 3.000000L639.000000 3.000000L639.000000 -24.000000C599.000000 -29.000000,588.000000 -37.000000,559.000000 -79.000000L375.000000 -354.000000C430.000000 -364.000000,459.000000 -376.000000,495.000000 -402.000000C553.000000 -444.000000,584.000000 -499.000000,584.000000 -560.000000C584.000000 -646.000000,520.000000 -694.000000,409.000000 -692.000000L259.000000 -689.000000C244.000000 -689.000000,226.000000 -689.000000,108.000000 -692.000000"></path>
    </g>
    <g transform="scale(0.009963,0.009963)" id="GLYPHpplri8r_83">
      <path style="fill-rule: evenodd;" d="M451.000000 -537.000000L481.000000 -537.000000C485.000000 -591.000000,492.000000 -629.000000,506.000000 -672.000000C461.000000 -696.000000,421.000000 -706.000000,374.000000 -706.000000C301.000000 -706.000000,225.000000 -675.000000,172.000000 -621.000000C129.000000 -580.000000,108.000000 -529.000000,108.000000 -471.000000C108.000000 -386.000000,146.000000 -339.000000,230.000000 -319.000000L325.000000 -296.000000C379.000000 -283.000000,406.000000 -248.000000,406.000000 -191.000000C406.000000 -96.000000,335.000000 -30.000000,232.000000 -30.000000C178.000000 -30.000000,140.000000 -42.000000,96.000000 -73.000000L96.000000 -172.000000L66.000000 -172.000000C60.000000 -117.000000,53.000000 -72.000000,42.000000 -20.000000C91.000000 5.000000,144.000000 18.000000,197.000000 18.000000C352.000000 18.000000,485.000000 -99.000000,485.000000 -234.000000C485.000000 -313.000000,442.000000 -355.000000,341.000000 -377.000000L276.000000 -391.000000C210.000000 -405.000000,180.000000 -442.000000,180.000000 -508.000000C180.000000 -595.000000,247.000000 -658.000000,339.000000 -658.000000C388.000000 -658.000000,421.000000 -645.000000,451.000000 -613.000000"></path>
    </g>
    <g transform="scale(0.009963,0.009963)" id="GLYPHpplri8r_84">
      <path style="fill-rule: evenodd;" d="M390.000000 -646.000000L463.000000 -646.000000C541.000000 -646.000000,577.000000 -641.000000,580.000000 -629.000000C583.000000 -621.000000,585.000000 -602.000000,584.000000 -592.000000L580.000000 -528.000000L608.000000 -528.000000L635.000000 -692.000000L544.000000 -691.000000C456.000000 -690.000000,388.000000 -689.000000,353.000000 -689.000000C316.000000 -689.000000,252.000000 -690.000000,166.000000 -691.000000L71.000000 -692.000000L53.000000 -528.000000L82.000000 -528.000000L97.000000 -588.000000C102.000000 -610.000000,109.000000 -626.000000,115.000000 -633.000000C121.000000 -640.000000,159.000000 -646.000000,196.000000 -646.000000L308.000000 -646.000000L222.000000 -125.000000C206.000000 -34.000000,204.000000 -31.000000,164.000000 -28.000000L113.000000 -25.000000L109.000000 3.000000L166.000000 2.000000C206.000000 1.000000,235.000000 -0.000000,251.000000 -0.000000C270.000000 -0.000000,301.000000 1.000000,340.000000 2.000000L384.000000 3.000000L387.000000 -25.000000L328.000000 -28.000000C302.000000 -29.000000,292.000000 -37.000000,292.000000 -58.000000C292.000000 -67.000000,293.000000 -74.000000,296.000000 -93.000000"></path>
    </g>
    <g transform="scale(0.009963,0.009963)" id="GLYPHpplri8r_97">
      <path style="fill-rule: evenodd;" d="M402.000000 -472.000000L392.000000 -481.000000L359.000000 -463.000000C318.000000 -478.000000,301.000000 -482.000000,274.000000 -482.000000C246.000000 -482.000000,226.000000 -477.000000,199.000000 -464.000000C137.000000 -433.000000,104.000000 -403.000000,79.000000 -354.000000C35.000000 -265.000000,4.000000 -145.000000,4.000000 -67.000000C4.000000 -23.000000,19.000000 11.000000,38.000000 11.000000C60.000000 11.000000,98.000000 -11.000000,136.000000 -45.000000C178.000000 -83.000000,217.000000 -128.000000,271.000000 -204.000000L242.000000 -77.000000C238.000000 -60.000000,236.000000 -42.000000,236.000000 -26.000000C236.000000 -4.000000,245.000000 9.000000,260.000000 9.000000C283.000000 9.000000,324.000000 -17.000000,406.000000 -85.000000L399.000000 -106.000000C393.000000 -101.000000,390.000000 -99.000000,386.000000 -95.000000C354.000000 -68.000000,339.000000 -59.000000,324.000000 -59.000000C315.000000 -59.000000,309.000000 -68.000000,309.000000 -82.000000C309.000000 -87.000000,309.000000 -90.000000,310.000000 -93.000000M319.000000 -414.000000C297.000000 -305.000000,278.000000 -253.000000,244.000000 -201.000000C187.000000 -117.000000,126.000000 -59.000000,94.000000 -59.000000C82.000000 -59.000000,76.000000 -72.000000,76.000000 -99.000000C76.000000 -163.000000,104.000000 -280.000000,139.000000 -360.000000C163.000000 -415.000000,186.000000 -433.000000,234.000000 -433.000000C257.000000 -433.000000,275.000000 -429.000000,319.000000 -414.000000"></path>
    </g>
    <g transform="scale(0.009963,0.009963)" id="GLYPHpplri8r_100">
      <path style="fill-rule: evenodd;" d="M483.000000 -722.000000L471.000000 -733.000000C419.000000 -707.000000,383.000000 -698.000000,311.000000 -691.000000L307.000000 -670.000000L355.000000 -670.000000C379.000000 -670.000000,389.000000 -663.000000,389.000000 -646.000000C389.000000 -638.000000,388.000000 -629.000000,387.000000 -622.000000L359.000000 -468.000000C329.000000 -477.000000,302.000000 -482.000000,277.000000 -482.000000C208.000000 -482.000000,114.000000 -410.000000,68.000000 -323.000000C37.000000 -265.000000,17.000000 -170.000000,17.000000 -86.000000C17.000000 -21.000000,32.000000 11.000000,61.000000 11.000000C88.000000 11.000000,125.000000 -6.000000,159.000000 -33.000000C213.000000 -77.000000,246.000000 -116.000000,313.000000 -217.000000L290.000000 -126.000000C279.000000 -82.000000,274.000000 -50.000000,274.000000 -24.000000C274.000000 -3.000000,283.000000 9.000000,300.000000 9.000000C317.000000 9.000000,341.000000 -3.000000,375.000000 -28.000000L456.000000 -88.000000L446.000000 -107.000000L402.000000 -76.000000C388.000000 -66.000000,372.000000 -59.000000,363.000000 -59.000000C355.000000 -59.000000,349.000000 -68.000000,349.000000 -82.000000C349.000000 -90.000000,350.000000 -99.000000,357.000000 -128.000000M337.000000 -351.000000C319.000000 -263.000000,270.000000 -175.000000,208.000000 -116.000000C173.000000 -83.000000,133.000000 -59.000000,114.000000 -59.000000C98.000000 -59.000000,89.000000 -73.000000,89.000000 -98.000000C89.000000 -224.000000,135.000000 -380.000000,184.000000 -418.000000C197.000000 -428.000000,216.000000 -433.000000,243.000000 -433.000000C287.000000 -433.000000,316.000000 -427.000000,349.000000 -410.000000"></path>
    </g>
    <g transform="scale(0.009963,0.009963)" id="GLYPHpplri8r_101">
      <path style="fill-rule: evenodd;" d="M328.000000 -111.000000L304.000000 -94.000000C251.000000 -56.000000,203.000000 -36.000000,167.000000 -36.000000C120.000000 -36.000000,91.000000 -73.000000,91.000000 -133.000000C91.000000 -158.000000,94.000000 -185.000000,99.000000 -214.000000L181.000000 -234.000000C198.000000 -238.000000,225.000000 -248.000000,250.000000 -259.000000C335.000000 -296.000000,374.000000 -342.000000,374.000000 -404.000000C374.000000 -451.000000,340.000000 -482.000000,290.000000 -482.000000C225.000000 -482.000000,114.000000 -413.000000,75.000000 -349.000000C45.000000 -299.000000,15.000000 -180.000000,15.000000 -113.000000C15.000000 -35.000000,59.000000 11.000000,131.000000 11.000000C188.000000 11.000000,244.000000 -17.000000,336.000000 -92.000000M113.000000 -274.000000C130.000000 -343.000000,150.000000 -386.000000,179.000000 -412.000000C197.000000 -428.000000,228.000000 -440.000000,252.000000 -440.000000C281.000000 -440.000000,300.000000 -420.000000,300.000000 -388.000000C300.000000 -344.000000,265.000000 -297.000000,213.000000 -272.000000C185.000000 -258.000000,149.000000 -247.000000,104.000000 -237.000000"></path>
    </g>
    <g transform="scale(0.009963,0.009963)" id="GLYPHpplri8r_102">
      <path style="fill-rule: evenodd;" d="M286.000000 -383.000000C290.000000 -402.000000,297.000000 -425.000000,303.000000 -439.000000L299.000000 -446.000000L292.000000 -444.000000C268.000000 -438.000000,257.000000 -437.000000,208.000000 -437.000000L192.000000 -437.000000L213.000000 -549.000000C229.000000 -635.000000,257.000000 -673.000000,303.000000 -673.000000C333.000000 -673.000000,360.000000 -658.000000,375.000000 -634.000000L385.000000 -638.000000C390.000000 -654.000000,400.000000 -685.000000,408.000000 -705.000000L413.000000 -720.000000C397.000000 -727.000000,366.000000 -733.000000,343.000000 -733.000000C332.000000 -733.000000,316.000000 -730.000000,308.000000 -726.000000C284.000000 -715.000000,202.000000 -654.000000,179.000000 -630.000000C157.000000 -608.000000,145.000000 -578.000000,134.000000 -521.000000L119.000000 -442.000000C78.000000 -422.000000,58.000000 -414.000000,33.000000 -405.000000L28.000000 -383.000000L109.000000 -383.000000L100.000000 -327.000000C70.000000 -132.000000,33.000000 54.000000,11.000000 123.000000C-7.000000 182.000000,-37.000000 213.000000,-73.000000 213.000000C-96.000000 213.000000,-107.000000 206.000000,-125.000000 184.000000L-139.000000 188.000000C-143.000000 211.000000,-157.000000 259.000000,-162.000000 268.000000C-153.000000 273.000000,-138.000000 276.000000,-127.000000 276.000000C-86.000000 276.000000,-32.000000 245.000000,7.000000 198.000000C68.000000 126.000000,90.000000 56.000000,163.000000 -295.000000C166.000000 -307.000000,174.000000 -345.000000,182.000000 -383.000000"></path>
    </g>
    <g transform="scale(0.009963,0.009963)" id="GLYPHpplri8r_105">
      <path style="fill-rule: evenodd;" d="M34.000000 -388.000000L41.000000 -368.000000L73.000000 -389.000000C110.000000 -412.000000,113.000000 -414.000000,120.000000 -414.000000C130.000000 -414.000000,138.000000 -404.000000,138.000000 -391.000000C138.000000 -384.000000,134.000000 -361.000000,130.000000 -347.000000L64.000000 -107.000000C56.000000 -76.000000,51.000000 -49.000000,51.000000 -30.000000C51.000000 -6.000000,62.000000 9.000000,81.000000 9.000000C107.000000 9.000000,143.000000 -12.000000,241.000000 -85.000000L231.000000 -103.000000L205.000000 -86.000000C176.000000 -67.000000,153.000000 -56.000000,144.000000 -56.000000C137.000000 -56.000000,131.000000 -66.000000,131.000000 -76.000000C131.000000 -86.000000,133.000000 -95.000000,138.000000 -116.000000L215.000000 -420.000000C219.000000 -437.000000,221.000000 -448.000000,221.000000 -456.000000C221.000000 -473.000000,212.000000 -482.000000,196.000000 -482.000000C174.000000 -482.000000,137.000000 -461.000000,62.000000 -408.000000M228.000000 -712.000000C199.000000 -712.000000,170.000000 -679.000000,170.000000 -645.000000C170.000000 -620.000000,185.000000 -604.000000,209.000000 -604.000000C240.000000 -604.000000,264.000000 -633.000000,264.000000 -671.000000C264.000000 -695.000000,249.000000 -712.000000,228.000000 -712.000000"></path>
    </g>
    <g transform="scale(0.009963,0.009963)" id="GLYPHpplri8r_108">
      <path style="fill-rule: evenodd;" d="M251.000000 -722.000000L239.000000 -733.000000C187.000000 -707.000000,151.000000 -698.000000,79.000000 -691.000000L75.000000 -670.000000L123.000000 -670.000000C147.000000 -670.000000,157.000000 -663.000000,157.000000 -648.000000C157.000000 -645.000000,157.000000 -640.000000,154.000000 -622.000000L151.000000 -600.000000C145.000000 -545.000000,84.000000 -234.000000,69.000000 -184.000000L55.000000 -132.000000C42.000000 -82.000000,36.000000 -52.000000,36.000000 -31.000000C36.000000 -6.000000,47.000000 9.000000,66.000000 9.000000C92.000000 9.000000,128.000000 -12.000000,226.000000 -85.000000L216.000000 -103.000000L190.000000 -86.000000C161.000000 -67.000000,139.000000 -56.000000,129.000000 -56.000000C122.000000 -56.000000,116.000000 -66.000000,116.000000 -76.000000C116.000000 -82.000000,117.000000 -89.000000,120.000000 -104.000000L122.000000 -113.000000"></path>
    </g>
    <g transform="scale(0.009963,0.009963)" id="GLYPHpplri8r_109">
      <path style="fill-rule: evenodd;" d="M730.000000 -103.000000L704.000000 -86.000000C675.000000 -67.000000,653.000000 -56.000000,643.000000 -56.000000C636.000000 -56.000000,630.000000 -65.000000,630.000000 -76.000000C630.000000 -86.000000,632.000000 -95.000000,637.000000 -116.000000L712.000000 -413.000000C716.000000 -430.000000,719.000000 -446.000000,719.000000 -454.000000C719.000000 -471.000000,709.000000 -482.000000,693.000000 -482.000000C664.000000 -482.000000,626.000000 -464.000000,565.000000 -421.000000C502.000000 -376.000000,467.000000 -341.000000,418.000000 -272.000000L448.000000 -409.000000C452.000000 -429.000000,455.000000 -444.000000,455.000000 -451.000000C455.000000 -470.000000,445.000000 -482.000000,429.000000 -482.000000C399.000000 -482.000000,353.000000 -460.000000,298.000000 -418.000000C254.000000 -384.000000,234.000000 -363.000000,169.000000 -275.000000L202.000000 -408.000000C206.000000 -424.000000,208.000000 -439.000000,208.000000 -451.000000C208.000000 -470.000000,199.000000 -482.000000,185.000000 -482.000000C164.000000 -482.000000,126.000000 -461.000000,52.000000 -408.000000L24.000000 -388.000000L31.000000 -368.000000L63.000000 -389.000000C100.000000 -412.000000,103.000000 -414.000000,110.000000 -414.000000C121.000000 -414.000000,128.000000 -404.000000,128.000000 -389.000000C128.000000 -338.000000,87.000000 -145.000000,46.000000 -2.000000L49.000000 9.000000L117.000000 -6.000000L139.000000 -108.000000C163.000000 -219.000000,190.000000 -278.000000,245.000000 -338.000000C287.000000 -384.000000,332.000000 -414.000000,360.000000 -414.000000C367.000000 -414.000000,371.000000 -406.000000,371.000000 -393.000000C371.000000 -358.000000,349.000000 -244.000000,308.000000 -69.000000L292.000000 -2.000000L297.000000 9.000000L366.000000 -6.000000L387.000000 -113.000000C403.000000 -194.000000,437.000000 -269.000000,481.000000 -318.000000C536.000000 -379.000000,586.000000 -414.000000,618.000000 -414.000000C626.000000 -414.000000,631.000000 -405.000000,631.000000 -389.000000C631.000000 -365.000000,628.000000 -351.000000,606.000000 -264.000000C590.000000 -201.000000,573.000000 -141.000000,563.000000 -107.000000C554.000000 -79.000000,550.000000 -53.000000,550.000000 -31.000000C550.000000 -6.000000,561.000000 9.000000,580.000000 9.000000C606.000000 9.000000,642.000000 -12.000000,740.000000 -85.000000"></path>
    </g>
    <g transform="scale(0.009963,0.009963)" id="GLYPHpplri8r_110">
      <path style="fill-rule: evenodd;" d="M24.000000 -388.000000L31.000000 -368.000000L63.000000 -389.000000C100.000000 -412.000000,103.000000 -414.000000,110.000000 -414.000000C121.000000 -414.000000,128.000000 -404.000000,128.000000 -389.000000C128.000000 -338.000000,87.000000 -145.000000,46.000000 -2.000000L53.000000 9.000000C78.000000 2.000000,101.000000 -4.000000,123.000000 -8.000000C142.000000 -134.000000,163.000000 -199.000000,209.000000 -268.000000C263.000000 -352.000000,338.000000 -414.000000,383.000000 -414.000000C394.000000 -414.000000,400.000000 -405.000000,400.000000 -390.000000C400.000000 -372.000000,397.000000 -351.000000,389.000000 -319.000000L337.000000 -107.000000C328.000000 -70.000000,324.000000 -47.000000,324.000000 -31.000000C324.000000 -6.000000,335.000000 9.000000,354.000000 9.000000C380.000000 9.000000,416.000000 -12.000000,514.000000 -85.000000L504.000000 -103.000000L478.000000 -86.000000C449.000000 -67.000000,427.000000 -56.000000,417.000000 -56.000000C410.000000 -56.000000,404.000000 -65.000000,404.000000 -76.000000C404.000000 -81.000000,405.000000 -92.000000,406.000000 -96.000000L472.000000 -372.000000C479.000000 -401.000000,483.000000 -429.000000,483.000000 -446.000000C483.000000 -469.000000,472.000000 -482.000000,452.000000 -482.000000C410.000000 -482.000000,341.000000 -444.000000,282.000000 -389.000000C244.000000 -354.000000,216.000000 -320.000000,164.000000 -247.000000L202.000000 -408.000000C206.000000 -426.000000,208.000000 -438.000000,208.000000 -449.000000C208.000000 -470.000000,200.000000 -482.000000,185.000000 -482.000000C164.000000 -482.000000,125.000000 -460.000000,52.000000 -408.000000"></path>
    </g>
    <g transform="scale(0.009963,0.009963)" id="GLYPHpplri8r_111">
      <path style="fill-rule: evenodd;" d="M278.000000 -482.000000C235.000000 -482.000000,188.000000 -465.000000,143.000000 -433.000000C62.000000 -375.000000,17.000000 -274.000000,17.000000 -152.000000C17.000000 -46.000000,62.000000 11.000000,145.000000 11.000000C200.000000 11.000000,260.000000 -15.000000,305.000000 -57.000000C367.000000 -116.000000,411.000000 -230.000000,411.000000 -331.000000C411.000000 -425.000000,361.000000 -482.000000,278.000000 -482.000000M241.000000 -444.000000C302.000000 -444.000000,335.000000 -399.000000,335.000000 -315.000000C335.000000 -219.000000,304.000000 -113.000000,260.000000 -60.000000C242.000000 -39.000000,216.000000 -27.000000,185.000000 -27.000000C127.000000 -27.000000,93.000000 -72.000000,93.000000 -151.000000C93.000000 -264.000000,132.000000 -387.000000,181.000000 -427.000000C194.000000 -438.000000,217.000000 -444.000000,241.000000 -444.000000"></path>
    </g>
    <g transform="scale(0.009963,0.009963)" id="GLYPHpplri8r_113">
      <path style="fill-rule: evenodd;" d="M385.000000 -458.000000C342.000000 -475.000000,313.000000 -482.000000,284.000000 -482.000000C257.000000 -482.000000,233.000000 -474.000000,205.000000 -457.000000C169.000000 -435.000000,125.000000 -399.000000,103.000000 -374.000000C63.000000 -327.000000,24.000000 -181.000000,24.000000 -78.000000C24.000000 -19.000000,36.000000 11.000000,60.000000 11.000000C82.000000 11.000000,101.000000 3.000000,133.000000 -19.000000L141.000000 -25.000000C206.000000 -71.000000,271.000000 -143.000000,308.000000 -209.000000L232.000000 205.000000C227.000000 229.000000,217.000000 249.000000,205.000000 262.000000L214.000000 276.000000C245.000000 268.000000,276.000000 262.000000,300.000000 259.000000C304.000000 205.000000,310.000000 150.000000,319.000000 100.000000L405.000000 -356.000000C416.000000 -417.000000,422.000000 -443.000000,432.000000 -474.000000L418.000000 -480.000000M330.000000 -311.000000C319.000000 -260.000000,297.000000 -216.000000,260.000000 -170.000000C208.000000 -106.000000,147.000000 -59.000000,118.000000 -59.000000C104.000000 -59.000000,96.000000 -80.000000,96.000000 -113.000000C96.000000 -209.000000,139.000000 -359.000000,181.000000 -409.000000C193.000000 -424.000000,222.000000 -433.000000,254.000000 -433.000000C282.000000 -433.000000,303.000000 -427.000000,351.000000 -406.000000"></path>
    </g>
    <g transform="scale(0.009963,0.009963)" id="GLYPHpplri8r_114">
      <path style="fill-rule: evenodd;" d="M368.000000 -365.000000C371.000000 -403.000000,376.000000 -435.000000,384.000000 -476.000000C373.000000 -481.000000,369.000000 -482.000000,364.000000 -482.000000C333.000000 -482.000000,302.000000 -458.000000,266.000000 -407.000000L239.000000 -368.000000C200.000000 -312.000000,188.000000 -291.000000,172.000000 -256.000000L180.000000 -297.000000C184.000000 -320.000000,192.000000 -360.000000,198.000000 -382.000000L204.000000 -408.000000C208.000000 -425.000000,210.000000 -438.000000,210.000000 -450.000000C210.000000 -470.000000,202.000000 -482.000000,187.000000 -482.000000C166.000000 -482.000000,128.000000 -461.000000,54.000000 -408.000000L26.000000 -388.000000L33.000000 -368.000000L65.000000 -389.000000C93.000000 -407.000000,104.000000 -412.000000,113.000000 -412.000000C123.000000 -412.000000,130.000000 -403.000000,130.000000 -390.000000C130.000000 -332.000000,87.000000 -126.000000,47.000000 2.000000L57.000000 9.000000C72.000000 4.000000,88.000000 1.000000,111.000000 -4.000000L124.000000 -6.000000L150.000000 -126.000000C168.000000 -209.000000,191.000000 -262.000000,235.000000 -319.000000C269.000000 -363.000000,296.000000 -384.000000,318.000000 -384.000000C333.000000 -384.000000,343.000000 -379.000000,354.000000 -365.000000"></path>
    </g>
    <g transform="scale(0.009963,0.009963)" id="GLYPHpplri8r_115">
      <path style="fill-rule: evenodd;" d="M31.000000 -148.000000C26.000000 -97.000000,20.000000 -62.000000,9.000000 -16.000000C47.000000 2.000000,81.000000 11.000000,116.000000 11.000000C165.000000 11.000000,211.000000 -7.000000,262.000000 -47.000000C313.000000 -87.000000,334.000000 -124.000000,334.000000 -174.000000C334.000000 -228.000000,302.000000 -257.000000,228.000000 -271.000000L185.000000 -279.000000C125.000000 -290.000000,106.000000 -307.000000,106.000000 -348.000000C106.000000 -401.000000,151.000000 -442.000000,208.000000 -442.000000C249.000000 -442.000000,287.000000 -424.000000,303.000000 -397.000000L303.000000 -342.000000L326.000000 -342.000000C330.000000 -377.000000,334.000000 -404.000000,345.000000 -455.000000C306.000000 -474.000000,278.000000 -482.000000,245.000000 -482.000000C193.000000 -482.000000,132.000000 -452.000000,84.000000 -404.000000C58.000000 -377.000000,47.000000 -352.000000,47.000000 -316.000000C47.000000 -260.000000,78.000000 -228.000000,144.000000 -215.000000L207.000000 -203.000000C251.000000 -195.000000,267.000000 -177.000000,267.000000 -138.000000C267.000000 -73.000000,221.000000 -29.000000,150.000000 -29.000000C115.000000 -29.000000,84.000000 -40.000000,56.000000 -64.000000L56.000000 -148.000000"></path>
    </g>
    <g transform="scale(0.009963,0.009963)" id="GLYPHpplri8r_116">
      <path style="fill-rule: evenodd;" d="M125.000000 -390.000000L69.000000 -107.000000C68.000000 -100.000000,67.000000 -98.000000,64.000000 -86.000000C58.000000 -58.000000,56.000000 -43.000000,56.000000 -31.000000C56.000000 -6.000000,67.000000 9.000000,86.000000 9.000000C121.000000 9.000000,156.000000 -11.000000,234.000000 -74.000000L249.000000 -86.000000L265.000000 -99.000000L255.000000 -117.000000L210.000000 -86.000000C181.000000 -66.000000,161.000000 -56.000000,150.000000 -56.000000C141.000000 -56.000000,136.000000 -64.000000,136.000000 -76.000000C136.000000 -102.000000,150.000000 -183.000000,179.000000 -328.000000L192.000000 -390.000000L299.000000 -390.000000L310.000000 -440.000000C272.000000 -436.000000,238.000000 -434.000000,200.000000 -434.000000C216.000000 -528.000000,227.000000 -577.000000,245.000000 -631.000000L234.000000 -646.000000C214.000000 -634.000000,187.000000 -622.000000,156.000000 -610.000000L131.000000 -440.000000C87.000000 -419.000000,61.000000 -408.000000,43.000000 -403.000000L41.000000 -390.000000"></path>
    </g>
    <g transform="scale(0.009963,0.009963)" id="GLYPHpplri8r_117">
      <path style="fill-rule: evenodd;" d="M333.000000 -97.000000C326.000000 -73.000000,322.000000 -46.000000,322.000000 -31.000000C322.000000 -6.000000,333.000000 9.000000,352.000000 9.000000C378.000000 9.000000,414.000000 -12.000000,512.000000 -85.000000L502.000000 -103.000000L476.000000 -86.000000C452.000000 -70.000000,426.000000 -59.000000,415.000000 -59.000000C407.000000 -59.000000,402.000000 -66.000000,402.000000 -76.000000C402.000000 -84.000000,404.000000 -95.000000,407.000000 -110.000000L408.000000 -116.000000C431.000000 -225.000000,462.000000 -358.000000,492.000000 -473.000000L485.000000 -482.000000L417.000000 -465.000000L407.000000 -414.000000C392.000000 -336.000000,367.000000 -268.000000,336.000000 -221.000000C277.000000 -130.000000,199.000000 -59.000000,159.000000 -59.000000C151.000000 -59.000000,146.000000 -68.000000,146.000000 -85.000000C146.000000 -99.000000,148.000000 -112.000000,153.000000 -137.000000L210.000000 -408.000000C213.000000 -424.000000,215.000000 -438.000000,215.000000 -451.000000C215.000000 -470.000000,206.000000 -482.000000,192.000000 -482.000000C172.000000 -482.000000,134.000000 -461.000000,60.000000 -408.000000L32.000000 -388.000000L39.000000 -368.000000L71.000000 -389.000000C99.000000 -407.000000,110.000000 -412.000000,119.000000 -412.000000C128.000000 -412.000000,136.000000 -403.000000,136.000000 -392.000000C136.000000 -388.000000,135.000000 -378.000000,134.000000 -374.000000L71.000000 -77.000000C69.000000 -68.000000,67.000000 -44.000000,67.000000 -30.000000C67.000000 -7.000000,82.000000 11.000000,102.000000 11.000000C165.000000 11.000000,286.000000 -101.000000,370.000000 -239.000000"></path>
    </g>
    <g transform="scale(0.009963,0.009963)" id="GLYPHpplri8r_118">
      <path style="fill-rule: evenodd;" d="M332.000000 -423.000000L343.000000 -404.000000C352.000000 -410.000000,361.000000 -413.000000,370.000000 -413.000000C397.000000 -413.000000,413.000000 -390.000000,413.000000 -350.000000C413.000000 -202.000000,316.000000 -39.000000,228.000000 -39.000000C179.000000 -39.000000,148.000000 -81.000000,148.000000 -146.000000C148.000000 -251.000000,187.000000 -342.000000,285.000000 -464.000000L275.000000 -482.000000C255.000000 -473.000000,242.000000 -470.000000,214.000000 -470.000000C186.000000 -470.000000,144.000000 -472.000000,115.000000 -475.000000L103.000000 -476.000000C97.000000 -477.000000,92.000000 -477.000000,91.000000 -477.000000C79.000000 -477.000000,70.000000 -475.000000,59.000000 -470.000000C45.000000 -443.000000,34.000000 -407.000000,21.000000 -352.000000L43.000000 -352.000000L60.000000 -394.000000C67.000000 -411.000000,87.000000 -422.000000,111.000000 -422.000000C116.000000 -422.000000,125.000000 -422.000000,138.000000 -421.000000C146.000000 -420.000000,153.000000 -420.000000,166.000000 -420.000000C187.000000 -420.000000,203.000000 -421.000000,229.000000 -424.000000C118.000000 -304.000000,76.000000 -221.000000,76.000000 -121.000000C76.000000 -44.000000,122.000000 11.000000,186.000000 11.000000C228.000000 11.000000,266.000000 -7.000000,312.000000 -48.000000C359.000000 -91.000000,407.000000 -158.000000,438.000000 -227.000000C460.000000 -277.000000,477.000000 -344.000000,477.000000 -384.000000C477.000000 -441.000000,451.000000 -482.000000,415.000000 -482.000000C402.000000 -482.000000,390.000000 -478.000000,382.000000 -470.000000"></path>
    </g>
    <g transform="scale(0.009963,0.009963)" id="GLYPHpplri8r_119">
      <path style="fill-rule: evenodd;" d="M554.000000 -423.000000L565.000000 -404.000000C574.000000 -410.000000,583.000000 -413.000000,592.000000 -413.000000C619.000000 -413.000000,635.000000 -390.000000,635.000000 -350.000000C635.000000 -205.000000,538.000000 -39.000000,453.000000 -39.000000C424.000000 -39.000000,403.000000 -79.000000,403.000000 -134.000000C403.000000 -181.000000,412.000000 -247.000000,424.000000 -290.000000L476.000000 -474.000000L469.000000 -482.000000L395.000000 -460.000000L366.000000 -311.000000C354.000000 -249.000000,340.000000 -209.000000,311.000000 -155.000000C271.000000 -80.000000,233.000000 -39.000000,203.000000 -39.000000C168.000000 -39.000000,145.000000 -78.000000,145.000000 -136.000000C145.000000 -255.000000,186.000000 -352.000000,285.000000 -464.000000L275.000000 -482.000000C255.000000 -473.000000,242.000000 -470.000000,214.000000 -470.000000C186.000000 -470.000000,144.000000 -472.000000,115.000000 -475.000000L103.000000 -476.000000C97.000000 -477.000000,92.000000 -477.000000,91.000000 -477.000000C79.000000 -477.000000,70.000000 -475.000000,59.000000 -470.000000C45.000000 -443.000000,34.000000 -407.000000,21.000000 -352.000000L43.000000 -352.000000L60.000000 -394.000000C67.000000 -411.000000,87.000000 -422.000000,111.000000 -422.000000C116.000000 -422.000000,125.000000 -422.000000,138.000000 -421.000000C146.000000 -420.000000,154.000000 -420.000000,167.000000 -420.000000C188.000000 -420.000000,201.000000 -421.000000,226.000000 -424.000000L223.000000 -420.000000C217.000000 -412.000000,213.000000 -407.000000,196.000000 -388.000000C106.000000 -283.000000,72.000000 -211.000000,72.000000 -126.000000C72.000000 -44.000000,107.000000 11.000000,160.000000 11.000000C224.000000 11.000000,276.000000 -44.000000,350.000000 -187.000000C341.000000 -143.000000,338.000000 -118.000000,338.000000 -95.000000C338.000000 -32.000000,367.000000 11.000000,412.000000 11.000000C493.000000 11.000000,598.000000 -90.000000,660.000000 -227.000000C682.000000 -277.000000,699.000000 -344.000000,699.000000 -384.000000C699.000000 -441.000000,673.000000 -482.000000,637.000000 -482.000000C624.000000 -482.000000,612.000000 -478.000000,604.000000 -470.000000"></path>
    </g>
    <g transform="scale(0.009963,0.009963)" id="GLYPHpplri8r_121">
      <path style="fill-rule: evenodd;" d="M-7.000000 180.000000C-8.000000 187.000000,-8.000000 193.000000,-8.000000 198.000000C-8.000000 241.000000,29.000000 276.000000,74.000000 276.000000C180.000000 276.000000,290.000000 152.000000,349.000000 -33.000000L490.000000 -473.000000L479.000000 -482.000000C450.000000 -471.000000,427.000000 -465.000000,405.000000 -463.000000L370.000000 -331.000000C358.000000 -284.000000,323.000000 -211.000000,290.000000 -162.000000C255.000000 -111.000000,206.000000 -67.000000,184.000000 -67.000000C172.000000 -67.000000,163.000000 -90.000000,164.000000 -115.000000L165.000000 -128.000000L180.000000 -322.000000C182.000000 -353.000000,184.000000 -391.000000,184.000000 -419.000000C184.000000 -464.000000,177.000000 -482.000000,160.000000 -482.000000C147.000000 -482.000000,133.000000 -475.000000,85.000000 -442.000000L3.000000 -386.000000L14.000000 -368.000000L64.000000 -398.000000L68.000000 -401.000000C78.000000 -407.000000,85.000000 -410.000000,89.000000 -410.000000C103.000000 -410.000000,111.000000 -391.000000,111.000000 -358.000000C111.000000 -357.000000,111.000000 -351.000000,110.000000 -343.000000L93.000000 -100.000000L92.000000 -60.000000C92.000000 -18.000000,110.000000 11.000000,135.000000 11.000000C172.000000 11.000000,256.000000 -74.000000,331.000000 -187.000000L282.000000 -16.000000C231.000000 161.000000,181.000000 234.000000,111.000000 234.000000C76.000000 234.000000,49.000000 207.000000,49.000000 172.000000C49.000000 167.000000,50.000000 159.000000,51.000000 150.000000L41.000000 146.000000"></path>
    </g>
  </defs>
  <path d="M-0.937012 361.052216L609.058502 361.052216L609.058502 -0.558746L-0.937012 -0.558746Z" style="fill: rgb(100.000000%,100.000000%,100.000000%);stroke: none;"></path>
  <g transform="matrix(2.000000,-0.000000,-0.000000,2.000000,267.617950 353.553009)" style="fill: rgb(0.000000%,0.000000%,0.000000%);">
    <use xlink:href="#GLYPHpplri8r_69"></use>
    <use xlink:href="#GLYPHpplri8r_113" x="6.110078"></use>
    <use xlink:href="#GLYPHpplri8r_117" x="10.740025"></use>
    <use xlink:href="#GLYPHpplri8r_97" x="16.300051"></use>
    <use xlink:href="#GLYPHpplri8r_108" x="20.740062"></use>
    <use xlink:href="#GLYPHpplri8r_105" x="23.520006"></use>
    <use xlink:href="#GLYPHpplri8r_116" x="26.299950"></use>
    <use xlink:href="#GLYPHpplri8r_121" x="29.629962"></use>
  </g>
  <g transform="matrix(2.000000,-0.000000,-0.000000,2.000000,290.501862 287.803101)" style="fill: rgb(0.000000%,0.000000%,0.000000%);">
    <use xlink:href="#GLYPHpplri8r_73"></use>
    <use xlink:href="#GLYPHpplri8r_115" x="3.330012"></use>
    <use xlink:href="#GLYPHpplri8r_111" x="7.219970"></use>
  </g>
  <g transform="matrix(2.000000,-0.000000,-0.000000,2.000000,155.730011 219.771790)" style="fill: rgb(0.000000%,0.000000%,0.000000%);">
    <use xlink:href="#GLYPHpplri8r_76"></use>
    <use xlink:href="#GLYPHpplri8r_101" x="5.560026"></use>
    <use xlink:href="#GLYPHpplri8r_110" x="9.449984"></use>
    <use xlink:href="#GLYPHpplri8r_115" x="15.010010"></use>
  </g>
  <g transform="matrix(2.000000,-0.000000,-0.000000,2.000000,405.318878 219.896271)" style="fill: rgb(0.000000%,0.000000%,0.000000%);">
    <use xlink:href="#GLYPHpplri8r_80"></use>
    <use xlink:href="#GLYPHpplri8r_114" x="6.110078"></use>
    <use xlink:href="#GLYPHpplri8r_105" x="10.000036"></use>
    <use xlink:href="#GLYPHpplri8r_115" x="12.779981"></use>
    <use xlink:href="#GLYPHpplri8r_109" x="16.669939"></use>
  </g>
  <g transform="matrix(2.000000,-0.000000,-0.000000,2.000000,1.062988 219.786682)" style="fill: rgb(0.000000%,0.000000%,0.000000%);">
    <use xlink:href="#GLYPHpplri8r_80"></use>
    <use xlink:href="#GLYPHpplri8r_114" x="6.110078"></use>
    <use xlink:href="#GLYPHpplri8r_105" x="10.000036"></use>
    <use xlink:href="#GLYPHpplri8r_109" x="12.779981"></use>
    <use xlink:href="#GLYPHpplri8r_71" x="20.560004"></use>
    <use xlink:href="#GLYPHpplri8r_101" x="27.780081"></use>
    <use xlink:href="#GLYPHpplri8r_116" x="31.670039"></use>
    <use xlink:href="#GLYPHpplri8r_116" x="35.000051"></use>
    <use xlink:href="#GLYPHpplri8r_101" x="38.330063"></use>
    <use xlink:href="#GLYPHpplri8r_114" x="42.220021"></use>
  </g>
  <g transform="matrix(2.000000,-0.000000,-0.000000,2.000000,21.545898 151.755371)" style="fill: rgb(0.000000%,0.000000%,0.000000%);">
    <use xlink:href="#GLYPHpplri8r_71"></use>
    <use xlink:href="#GLYPHpplri8r_101" x="7.220077"></use>
    <use xlink:href="#GLYPHpplri8r_116" x="11.110035"></use>
    <use xlink:href="#GLYPHpplri8r_116" x="14.440047"></use>
    <use xlink:href="#GLYPHpplri8r_101" x="17.770059"></use>
    <use xlink:href="#GLYPHpplri8r_114" x="21.660017"></use>
  </g>
  <g transform="matrix(2.000000,-0.000000,-0.000000,2.000000,507.413696 219.896271)" style="fill: rgb(0.000000%,0.000000%,0.000000%);">
    <use xlink:href="#GLYPHpplri8r_80"></use>
    <use xlink:href="#GLYPHpplri8r_114" x="6.110078"></use>
    <use xlink:href="#GLYPHpplri8r_105" x="10.000036"></use>
    <use xlink:href="#GLYPHpplri8r_109" x="12.779981"></use>
    <use xlink:href="#GLYPHpplri8r_82" x="20.560004"></use>
    <use xlink:href="#GLYPHpplri8r_101" x="27.230029"></use>
    <use xlink:href="#GLYPHpplri8r_118" x="31.119987"></use>
    <use xlink:href="#GLYPHpplri8r_105" x="36.120067"></use>
    <use xlink:href="#GLYPHpplri8r_101" x="38.900011"></use>
    <use xlink:href="#GLYPHpplri8r_119" x="42.789969"></use>
  </g>
  <g transform="matrix(2.000000,-0.000000,-0.000000,2.000000,527.896606 151.864960)" style="fill: rgb(0.000000%,0.000000%,0.000000%);">
    <use xlink:href="#GLYPHpplri8r_82"></use>
    <use xlink:href="#GLYPHpplri8r_101" x="6.670025"></use>
    <use xlink:href="#GLYPHpplri8r_118" x="10.559983"></use>
    <use xlink:href="#GLYPHpplri8r_105" x="15.560063"></use>
    <use xlink:href="#GLYPHpplri8r_101" x="18.340007"></use>
    <use xlink:href="#GLYPHpplri8r_119" x="22.229965"></use>
  </g>
  <g transform="matrix(2.000000,-0.000000,-0.000000,2.000000,132.497406 152.109070)" style="fill: rgb(0.000000%,0.000000%,0.000000%);">
    <use xlink:href="#GLYPHpplri8r_84"></use>
  </g>
  <g transform="matrix(2.000000,-0.000000,-0.000000,2.000000,142.459991 152.109070)" style="fill: rgb(0.000000%,0.000000%,0.000000%);">
    <use xlink:href="#GLYPHpplri8r_114"></use>
    <use xlink:href="#GLYPHpplri8r_97" x="3.889958"></use>
    <use xlink:href="#GLYPHpplri8r_118" x="8.329969"></use>
    <use xlink:href="#GLYPHpplri8r_101" x="13.330048"></use>
    <use xlink:href="#GLYPHpplri8r_114" x="17.220006"></use>
    <use xlink:href="#GLYPHpplri8r_115" x="21.109965"></use>
    <use xlink:href="#GLYPHpplri8r_97" x="24.999923"></use>
    <use xlink:href="#GLYPHpplri8r_108" x="29.439933"></use>
    <use xlink:href="#GLYPHpplri8r_49" x="32.219877"></use>
  </g>
  <g transform="matrix(2.000000,-0.000000,-0.000000,2.000000,240.400452 149.459076)" style="fill: rgb(0.000000%,0.000000%,0.000000%);">
    <use xlink:href="#GLYPHpplri8r_65"></use>
    <use xlink:href="#GLYPHpplri8r_102" x="7.220077"></use>
    <use xlink:href="#GLYPHpplri8r_2" x="10.000021"></use>
  </g>
  <g transform="matrix(2.000000,-0.000000,-0.000000,2.000000,270.846039 149.459076)" style="fill: rgb(0.000000%,0.000000%,0.000000%);">
    <use xlink:href="#GLYPHpplri8r_110"></use>
    <use xlink:href="#GLYPHpplri8r_101" x="5.560026"></use>
    <use xlink:href="#GLYPHpplri8r_84" x="9.449984"></use>
  </g>
  <g transform="matrix(2.000000,-0.000000,-0.000000,2.000000,299.637848 149.459076)" style="fill: rgb(0.000000%,0.000000%,0.000000%);">
    <use xlink:href="#GLYPHpplri8r_114"></use>
    <use xlink:href="#GLYPHpplri8r_97" x="3.889958"></use>
    <use xlink:href="#GLYPHpplri8r_118" x="8.329969"></use>
    <use xlink:href="#GLYPHpplri8r_101" x="13.330048"></use>
    <use xlink:href="#GLYPHpplri8r_114" x="17.220006"></use>
    <use xlink:href="#GLYPHpplri8r_115" x="21.109965"></use>
    <use xlink:href="#GLYPHpplri8r_97" x="24.999923"></use>
    <use xlink:href="#GLYPHpplri8r_108" x="29.439933"></use>
  </g>
  <g transform="matrix(2.000000,-0.000000,-0.000000,2.000000,24.305298 84.077759)" style="fill: rgb(0.000000%,0.000000%,0.000000%);">
    <use xlink:href="#GLYPHpplri8r_70"></use>
    <use xlink:href="#GLYPHpplri8r_111" x="5.560026"></use>
    <use xlink:href="#GLYPHpplri8r_108" x="10.000036"></use>
    <use xlink:href="#GLYPHpplri8r_100" x="12.779981"></use>
    <use xlink:href="#GLYPHpplri8r_49" x="17.780060"></use>
  </g>
  <g transform="matrix(2.000000,-0.000000,-0.000000,2.000000,132.208313 81.427765)" style="fill: rgb(0.000000%,0.000000%,0.000000%);">
    <use xlink:href="#GLYPHpplri8r_65"></use>
    <use xlink:href="#GLYPHpplri8r_102" x="7.220077"></use>
    <use xlink:href="#GLYPHpplri8r_2" x="10.000021"></use>
  </g>
  <g transform="matrix(2.000000,-0.000000,-0.000000,2.000000,162.653900 81.427765)" style="fill: rgb(0.000000%,0.000000%,0.000000%);">
    <use xlink:href="#GLYPHpplri8r_110"></use>
    <use xlink:href="#GLYPHpplri8r_101" x="5.560026"></use>
    <use xlink:href="#GLYPHpplri8r_70" x="9.449984"></use>
    <use xlink:href="#GLYPHpplri8r_111" x="15.010010"></use>
    <use xlink:href="#GLYPHpplri8r_108" x="19.450021"></use>
    <use xlink:href="#GLYPHpplri8r_100" x="22.229965"></use>
  </g>
  <g transform="matrix(2.000000,-0.000000,-0.000000,2.000000,265.037750 84.077759)" style="fill: rgb(0.000000%,0.000000%,0.000000%);">
    <use xlink:href="#GLYPHpplri8r_84"></use>
  </g>
  <g transform="matrix(2.000000,-0.000000,-0.000000,2.000000,275.000336 84.077759)" style="fill: rgb(0.000000%,0.000000%,0.000000%);">
    <use xlink:href="#GLYPHpplri8r_114"></use>
    <use xlink:href="#GLYPHpplri8r_97" x="3.889958"></use>
    <use xlink:href="#GLYPHpplri8r_118" x="8.329969"></use>
    <use xlink:href="#GLYPHpplri8r_101" x="13.330048"></use>
    <use xlink:href="#GLYPHpplri8r_114" x="17.220006"></use>
    <use xlink:href="#GLYPHpplri8r_115" x="21.109965"></use>
    <use xlink:href="#GLYPHpplri8r_97" x="24.999923"></use>
    <use xlink:href="#GLYPHpplri8r_108" x="29.439933"></use>
  </g>
  <g transform="matrix(2.000000,-0.000000,-0.000000,2.000000,156.845703 16.046448)" style="fill: rgb(0.000000%,0.000000%,0.000000%);">
    <use xlink:href="#GLYPHpplri8r_70"></use>
    <use xlink:href="#GLYPHpplri8r_111" x="5.560026"></use>
    <use xlink:href="#GLYPHpplri8r_108" x="10.000036"></use>
    <use xlink:href="#GLYPHpplri8r_100" x="12.779981"></use>
  </g>
  <g transform="matrix(2.000000,-0.000000,-0.000000,2.000000,278.317780 15.692749)" style="fill: rgb(0.000000%,0.000000%,0.000000%);">
    <use xlink:href="#GLYPHpplri8r_83"></use>
    <use xlink:href="#GLYPHpplri8r_101" x="5.560026"></use>
    <use xlink:href="#GLYPHpplri8r_116" x="9.449984"></use>
    <use xlink:href="#GLYPHpplri8r_116" x="12.779996"></use>
    <use xlink:href="#GLYPHpplri8r_101" x="16.110008"></use>
    <use xlink:href="#GLYPHpplri8r_114" x="19.999966"></use>
  </g>
  <path d="M302.118073 292.002350L304.952728 297.671295L299.283417 297.671295Z" style="stroke:rgb(0.000000%,0.000000%,0.000000%); stroke-width: 1.000000;fill: rgb(0.000000%,0.000000%,0.000000%);"></path>
  <path d="M302.118073 334.947571L302.118073 292.002350" style="stroke:rgb(0.000000%,0.000000%,0.000000%); stroke-width: 1.000000;stroke-linecap: round;stroke-linejoin: round;stroke-miterlimit: 10.000000;fill: none;"></path>
  <path d="M195.247742 223.971313L201.583282 224.137634L198.915436 229.139954Z" style="stroke:rgb(0.000000%,0.000000%,60.000610%); stroke-width: 1.000000;fill: rgb(0.000000%,0.000000%,60.000610%);"></path>
  <path d="M286.502106 272.640228L195.247742 223.971313" style="stroke:rgb(0.000000%,0.000000%,60.000610%); stroke-width: 1.000000;stroke-linecap: round;stroke-linejoin: round;stroke-miterlimit: 10.000000;fill: none;"></path>
  <path d="M408.756104 224.095215L405.088684 229.263763L402.420837 224.261444Z" style="stroke:rgb(69.999695%,0.000000%,0.000000%); stroke-width: 1.000000;fill: rgb(69.999695%,0.000000%,0.000000%);"></path>
  <path d="M317.734039 272.640228L408.756104 224.095215" style="stroke:rgb(69.999695%,0.000000%,0.000000%); stroke-width: 1.000000;stroke-linecap: round;stroke-linejoin: round;stroke-miterlimit: 10.000000;fill: none;"></path>
  <path d="M68.125977 156.173187L74.461792 156.339691L71.793945 161.342010Z" style="stroke:rgb(0.000000%,0.000000%,60.000610%); stroke-width: 1.000000;fill: rgb(0.000000%,0.000000%,60.000610%);"></path>
  <path d="M153.870758 201.903687L68.125977 156.173187" style="stroke:rgb(0.000000%,0.000000%,60.000610%); stroke-width: 1.000000;stroke-linecap: round;stroke-linejoin: round;stroke-miterlimit: 10.000000;fill: none;"></path>
  <path d="M47.000000 156.172943L49.834656 161.842072L44.165344 161.842072Z" style="stroke:rgb(100.000000%,50.000000%,0.000000%); stroke-width: 1.000000;fill: rgb(100.000000%,50.000000%,0.000000%);"></path>
  <path d="M47.000000 201.670074L47.000000 156.172943" style="stroke:rgb(100.000000%,50.000000%,0.000000%); stroke-width: 1.000000;stroke-linecap: round;stroke-linejoin: round;stroke-miterlimit: 10.000000;fill: none;"></path>
  <path d="M173.141693 156.308044L173.141693 161.976898L170.307037 161.976898Z" style="stroke:rgb(0.000000%,0.000000%,60.000610%); stroke-width: 1.000000;fill: rgb(0.000000%,0.000000%,60.000610%);"></path>
  <path d="M173.141693 201.903687L173.141693 156.308044" style="stroke:rgb(0.000000%,0.000000%,60.000610%); stroke-width: 1.000000;stroke-linecap: round;stroke-linejoin: round;stroke-miterlimit: 10.000000;fill: none;"></path>
  <path d="M175.976349 156.308044L175.976349 161.976898L178.811005 161.976898Z" style="stroke:rgb(0.000000%,60.000610%,0.000000%); stroke-width: 1.000000;fill: rgb(0.000000%,60.000610%,0.000000%);"></path>
  <path d="M175.976349 201.903687L175.976349 156.308044" style="stroke:rgb(0.000000%,60.000610%,0.000000%); stroke-width: 1.000000;stroke-linecap: round;stroke-linejoin: round;stroke-miterlimit: 10.000000;fill: none;"></path>
  <path d="M275.768921 158.958954L272.100952 164.127777L269.433105 159.125458Z" style="stroke:rgb(0.000000%,0.000000%,60.000610%); stroke-width: 1.000000;fill: rgb(0.000000%,0.000000%,60.000610%);"></path>
  <path d="M195.247284 201.903687L275.768921 158.958954" style="stroke:rgb(0.000000%,0.000000%,60.000610%); stroke-width: 1.000000;stroke-linecap: round;stroke-linejoin: round;stroke-miterlimit: 10.000000;fill: none;"></path>
  <path d="M297.866119 20.110321L297.866119 25.779175L295.031464 25.779175Z" style="stroke:rgb(0.000000%,0.000000%,60.000610%); stroke-width: 1.000000;fill: rgb(0.000000%,0.000000%,60.000610%);"></path>
  <path d="M297.866119 65.472504L297.866119 20.110321" style="stroke:rgb(0.000000%,0.000000%,60.000610%); stroke-width: 1.000000;stroke-linecap: round;stroke-linejoin: round;stroke-miterlimit: 10.000000;fill: none;"></path>
  <path d="M300.700745 65.472504L300.700745 20.110321" style="stroke:rgb(0.000000%,60.000610%,0.000000%); stroke-width: 1.000000;stroke-linecap: round;stroke-linejoin: round;stroke-miterlimit: 10.000000;fill: none;"></path>
  <path d="M303.535400 65.472504L303.535400 20.110321" style="stroke:rgb(69.999695%,0.000000%,0.000000%); stroke-width: 1.000000;stroke-linecap: round;stroke-linejoin: round;stroke-miterlimit: 10.000000;fill: none;"></path>
  <path d="M306.370026 20.110321L306.370026 25.779175L309.204681 25.779175Z" style="stroke:rgb(50.000000%,50.000000%,50.000000%); stroke-width: 1.000000;fill: rgb(50.000000%,50.000000%,50.000000%);"></path>
  <path d="M306.370026 65.472504L306.370026 20.110321" style="stroke:rgb(50.000000%,50.000000%,50.000000%); stroke-width: 1.000000;stroke-linecap: round;stroke-linejoin: round;stroke-miterlimit: 10.000000;fill: none;"></path>
  <path d="M194.604950 22.747131L199.606018 25.414337L198.272095 27.915497Z" style="stroke:rgb(0.000000%,0.000000%,60.000610%); stroke-width: 1.000000;fill: rgb(0.000000%,0.000000%,60.000610%);"></path>
  <path d="M279.404938 67.973663L194.604950 22.747131" style="stroke:rgb(0.000000%,0.000000%,60.000610%); stroke-width: 1.000000;stroke-linecap: round;stroke-linejoin: round;stroke-miterlimit: 10.000000;fill: none;"></path>
  <path d="M280.738861 65.472504L195.938873 20.245972" style="stroke:rgb(0.000000%,60.000610%,0.000000%); stroke-width: 1.000000;stroke-linecap: round;stroke-linejoin: round;stroke-miterlimit: 10.000000;fill: none;"></path>
  <path d="M197.272797 17.744812L202.273865 20.412018L203.607788 17.910858Z" style="stroke:rgb(69.999695%,0.000000%,0.000000%); stroke-width: 1.000000;fill: rgb(69.999695%,0.000000%,0.000000%);"></path>
  <path d="M282.072784 62.971344L197.272797 17.744812" style="stroke:rgb(69.999695%,0.000000%,0.000000%); stroke-width: 1.000000;stroke-linecap: round;stroke-linejoin: round;stroke-miterlimit: 10.000000;fill: none;"></path>
  <path d="M67.712891 89.527863L72.713959 92.195068L71.380035 94.696228Z" style="stroke:rgb(0.000000%,0.000000%,60.000610%); stroke-width: 1.000000;fill: rgb(0.000000%,0.000000%,60.000610%);"></path>
  <path d="M152.512848 134.754395L67.712891 89.527863" style="stroke:rgb(0.000000%,0.000000%,60.000610%); stroke-width: 1.000000;stroke-linecap: round;stroke-linejoin: round;stroke-miterlimit: 10.000000;fill: none;"></path>
  <path d="M69.046814 87.026703L74.047882 89.693909L75.381805 87.192749Z" style="stroke:rgb(0.000000%,60.000610%,0.000000%); stroke-width: 1.000000;fill: rgb(0.000000%,60.000610%,0.000000%);"></path>
  <path d="M153.846771 132.253235L69.046814 87.026703" style="stroke:rgb(0.000000%,60.000610%,0.000000%); stroke-width: 1.000000;stroke-linecap: round;stroke-linejoin: round;stroke-miterlimit: 10.000000;fill: none;"></path>
  <path d="M280.071259 87.026703L275.070190 89.693909L273.736267 87.192749Z" style="stroke:rgb(0.000000%,0.000000%,60.000610%); stroke-width: 1.000000;fill: rgb(0.000000%,0.000000%,60.000610%);"></path>
  <path d="M195.271271 132.253235L280.071259 87.026703" style="stroke:rgb(0.000000%,0.000000%,60.000610%); stroke-width: 1.000000;stroke-linecap: round;stroke-linejoin: round;stroke-miterlimit: 10.000000;fill: none;"></path>
  <path d="M281.405182 89.527863L276.404114 92.195068L277.738037 94.696228Z" style="stroke:rgb(0.000000%,60.000610%,0.000000%); stroke-width: 1.000000;fill: rgb(0.000000%,60.000610%,0.000000%);"></path>
  <path d="M196.605194 134.754395L281.405182 89.527863" style="stroke:rgb(0.000000%,60.000610%,0.000000%); stroke-width: 1.000000;stroke-linecap: round;stroke-linejoin: round;stroke-miterlimit: 10.000000;fill: none;"></path>
  <path d="M45.582672 88.276733L45.582672 93.945587L42.748016 93.945587Z" style="stroke:rgb(100.000000%,50.000000%,0.000000%); stroke-width: 1.000000;fill: rgb(100.000000%,50.000000%,0.000000%);"></path>
  <path d="M45.582672 133.638763L45.582672 88.276733" style="stroke:rgb(100.000000%,50.000000%,0.000000%); stroke-width: 1.000000;stroke-linecap: round;stroke-linejoin: round;stroke-miterlimit: 10.000000;fill: none;"></path>
  <path d="M48.417328 88.276733L48.417328 93.945587L51.251984 93.945587Z" style="stroke:rgb(0.000000%,0.000000%,60.000610%); stroke-width: 1.000000;fill: rgb(0.000000%,0.000000%,60.000610%);"></path>
  <path d="M48.417328 133.638763L48.417328 88.276733" style="stroke:rgb(0.000000%,0.000000%,60.000610%); stroke-width: 1.000000;stroke-linecap: round;stroke-linejoin: round;stroke-miterlimit: 10.000000;fill: none;"></path>
  <path d="M200.240295 92.177673L205.242462 94.845520L203.908539 97.346680Z" style="stroke:rgb(0.000000%,0.000000%,60.000610%); stroke-width: 1.000000;fill: rgb(0.000000%,0.000000%,60.000610%);"></path>
  <path d="M233.459839 109.894714L200.240295 92.177673" style="stroke:rgb(0.000000%,0.000000%,60.000610%); stroke-width: 1.000000;stroke-linecap: round;stroke-linejoin: round;stroke-miterlimit: 10.000000;fill: none;"></path>
  <path d="M275.102783 132.104218L240.866455 113.844910" style="stroke:rgb(0.000000%,0.000000%,60.000610%); stroke-width: 1.000000;stroke-linecap: round;stroke-linejoin: round;stroke-miterlimit: 10.000000;fill: none;"></path>
  <path d="M201.574219 89.676514L206.576385 92.344360L207.910309 89.843201Z" style="stroke:rgb(69.999695%,0.000000%,0.000000%); stroke-width: 1.000000;fill: rgb(69.999695%,0.000000%,0.000000%);"></path>
  <path d="M235.810455 107.935791L201.574219 89.676514" style="stroke:rgb(69.999695%,0.000000%,0.000000%); stroke-width: 1.000000;stroke-linecap: round;stroke-linejoin: round;stroke-miterlimit: 10.000000;fill: none;"></path>
  <path d="M276.436707 129.603058L243.217529 111.886230" style="stroke:rgb(69.999695%,0.000000%,0.000000%); stroke-width: 1.000000;stroke-linecap: round;stroke-linejoin: round;stroke-miterlimit: 10.000000;fill: none;"></path>
  <path d="M171.724365 20.245239L171.724365 25.914276L168.889709 25.914276Z" style="stroke:rgb(100.000000%,50.000000%,0.000000%); stroke-width: 1.000000;fill: rgb(100.000000%,50.000000%,0.000000%);"></path>
  <path d="M171.724365 62.822327L171.724365 20.245239" style="stroke:rgb(100.000000%,50.000000%,0.000000%); stroke-width: 1.000000;stroke-linecap: round;stroke-linejoin: round;stroke-miterlimit: 10.000000;fill: none;"></path>
  <path d="M174.559021 62.822327L174.559021 20.245239" style="stroke:rgb(0.000000%,0.000000%,60.000610%); stroke-width: 1.000000;stroke-linecap: round;stroke-linejoin: round;stroke-miterlimit: 10.000000;fill: none;"></path>
  <path d="M177.393677 20.245239L177.393677 25.914276L180.228333 25.914276Z" style="stroke:rgb(69.999695%,0.000000%,0.000000%); stroke-width: 1.000000;fill: rgb(69.999695%,0.000000%,0.000000%);"></path>
  <path d="M177.393677 62.822327L177.393677 20.245239" style="stroke:rgb(69.999695%,0.000000%,0.000000%); stroke-width: 1.000000;stroke-linecap: round;stroke-linejoin: round;stroke-miterlimit: 10.000000;fill: none;"></path>
  <path d="M151.845245 17.744812L146.844177 20.412018L145.510254 17.910858Z" style="stroke:rgb(100.000000%,50.000000%,0.000000%); stroke-width: 1.000000;fill: rgb(100.000000%,50.000000%,0.000000%);"></path>
  <path d="M67.045288 62.971344L151.845245 17.744812" style="stroke:rgb(100.000000%,50.000000%,0.000000%); stroke-width: 1.000000;stroke-linecap: round;stroke-linejoin: round;stroke-miterlimit: 10.000000;fill: none;"></path>
  <path d="M68.379211 65.472504L153.179169 20.245972" style="stroke:rgb(0.000000%,0.000000%,60.000610%); stroke-width: 1.000000;stroke-linecap: round;stroke-linejoin: round;stroke-miterlimit: 10.000000;fill: none;"></path>
  <path d="M154.513092 22.747131L149.512024 25.414337L150.845947 27.915497Z" style="stroke:rgb(0.000000%,60.000610%,0.000000%); stroke-width: 1.000000;fill: rgb(0.000000%,60.000610%,0.000000%);"></path>
  <path d="M69.713135 67.973663L154.513092 22.747131" style="stroke:rgb(0.000000%,60.000610%,0.000000%); stroke-width: 1.000000;stroke-linecap: round;stroke-linejoin: round;stroke-miterlimit: 10.000000;fill: none;"></path>
  <path d="M147.543671 89.676605L142.542053 92.344086L141.208130 89.842926Z" style="stroke:rgb(100.000000%,50.000000%,0.000000%); stroke-width: 1.000000;fill: rgb(100.000000%,50.000000%,0.000000%);"></path>
  <path d="M113.308350 107.935364L147.543671 89.676605" style="stroke:rgb(100.000000%,50.000000%,0.000000%); stroke-width: 1.000000;stroke-linecap: round;stroke-linejoin: round;stroke-miterlimit: 10.000000;fill: none;"></path>
  <path d="M67.459198 132.388184L105.900726 111.886139" style="stroke:rgb(100.000000%,50.000000%,0.000000%); stroke-width: 1.000000;stroke-linecap: round;stroke-linejoin: round;stroke-miterlimit: 10.000000;fill: none;"></path>
  <path d="M148.877594 92.177765L143.875977 94.845245L145.209900 97.346405Z" style="stroke:rgb(0.000000%,0.000000%,60.000610%); stroke-width: 1.000000;fill: rgb(0.000000%,0.000000%,60.000610%);"></path>
  <path d="M115.658966 109.894318L148.877594 92.177765" style="stroke:rgb(0.000000%,0.000000%,60.000610%); stroke-width: 1.000000;stroke-linecap: round;stroke-linejoin: round;stroke-miterlimit: 10.000000;fill: none;"></path>
  <path d="M68.793121 134.889343L108.251526 113.844940" style="stroke:rgb(0.000000%,0.000000%,60.000610%); stroke-width: 1.000000;stroke-linecap: round;stroke-linejoin: round;stroke-miterlimit: 10.000000;fill: none;"></path>
  <path d="M328.466583 158.958588L334.802582 159.125183L332.134735 164.127502Z" style="stroke:rgb(69.999695%,0.000000%,0.000000%); stroke-width: 1.000000;fill: rgb(69.999695%,0.000000%,0.000000%);"></path>
  <path d="M408.755280 201.779114L328.466583 158.958588" style="stroke:rgb(69.999695%,0.000000%,0.000000%); stroke-width: 1.000000;stroke-linecap: round;stroke-linejoin: round;stroke-miterlimit: 10.000000;fill: none;"></path>
  <path d="M300.700745 88.276550L300.700745 93.945587L297.866089 93.945587Z" style="stroke:rgb(0.000000%,0.000000%,60.000610%); stroke-width: 1.000000;fill: rgb(0.000000%,0.000000%,60.000610%);"></path>
  <path d="M300.700745 130.853638L300.700745 88.276550" style="stroke:rgb(0.000000%,0.000000%,60.000610%); stroke-width: 1.000000;stroke-linecap: round;stroke-linejoin: round;stroke-miterlimit: 10.000000;fill: none;"></path>
  <path d="M303.535400 88.276550L303.535400 93.945587L306.370056 93.945587Z" style="stroke:rgb(69.999695%,0.000000%,0.000000%); stroke-width: 1.000000;fill: rgb(69.999695%,0.000000%,0.000000%);"></path>
  <path d="M303.535400 130.853638L303.535400 88.276550" style="stroke:rgb(69.999695%,0.000000%,0.000000%); stroke-width: 1.000000;stroke-linecap: round;stroke-linejoin: round;stroke-miterlimit: 10.000000;fill: none;"></path>
  <path d="M536.314148 156.064423L532.646637 161.233002L529.978790 156.230682Z" style="stroke:rgb(69.999695%,0.000000%,0.000000%); stroke-width: 1.000000;fill: rgb(69.999695%,0.000000%,0.000000%);"></path>
  <path d="M450.598907 201.779114L536.314148 156.064423" style="stroke:rgb(69.999695%,0.000000%,0.000000%); stroke-width: 1.000000;stroke-linecap: round;stroke-linejoin: round;stroke-miterlimit: 10.000000;fill: none;"></path>
  <path d="M557.236115 156.064423L560.070770 161.733459L554.401459 161.733459Z" style="stroke:rgb(60.000610%,0.000000%,100.000000%); stroke-width: 1.000000;fill: rgb(60.000610%,0.000000%,100.000000%);"></path>
  <path d="M557.236115 201.779114L557.236115 156.064423" style="stroke:rgb(60.000610%,0.000000%,100.000000%); stroke-width: 1.000000;stroke-linecap: round;stroke-linejoin: round;stroke-miterlimit: 10.000000;fill: none;"></path>
</svg>
